<svg xmlns="http://www.w3.org/2000/svg" width="800" height="800" fill="none" viewBox="0 0 64 64"><path fill="#BE202E" d="M31.918 30.136"/><path fill="#BE202E" d="M31.918 30.136" opacity=".35"/><path fill="#BE202E" d="M31.704 29.682q-.002.002 0 0l.014-.012.055-.054z"/><path fill="#BE202E" d="M31.704 29.682q-.002.002 0 0l.014-.012.055-.054z" opacity=".35"/><path fill="#BE202E" d="M31.878 30.179q-.022.02-.045.043.02-.021.045-.043"/><path fill="#BE202E" d="M31.878 30.179q-.022.02-.045.043.02-.021.045-.043" opacity=".35"/><path fill="#BE202E" d="m31.704 29.683.015-.013z"/><path fill="#BE202E" d="m31.704 29.683.015-.013z" opacity=".35"/><path fill="#000" d="M7.713 23.019h2.662q.278 0 .392.114a.35.35 0 0 1 .114.245q.016.147.05.294l.065.539q.049.26.081.539.18 1.028.294 2.09.13 1.061.31 2.106.066.327.098.67.033.342.098.67l.033.162q.015.082.082.131a.2.2 0 0 1 .049.033q.032.015.081-.017.13-.032.213-.196a4 4 0 0 1 .163-.294q.195-.375.376-.734.18-.375.391-.752.523-.995 1.045-1.992a179 179 0 0 0 1.323-2.53q.146-.263.278-.523.064-.13.147-.262a.6.6 0 0 1 .228-.212.44.44 0 0 1 .262-.081h2.808q.164 0 .229.065.163.098.098.375a34 34 0 0 0-.098.54l-.49 2.449-1.225 6.074-.277 1.42q-.034.18-.082.36a.45.45 0 0 1-.163.245.55.55 0 0 1-.262.098h-1.55a2 2 0 0 0-.213-.049q-.082-.016-.13-.114a.33.33 0 0 1-.033-.212l.065-.278.163-.833.85-4.197q.032-.228.065-.424.049-.213.081-.425l.066-.261a1.3 1.3 0 0 0 .032-.278 1 1 0 0 1 0-.245q.033-.13-.049-.163-.049-.015-.081.017l-.05.049a.7.7 0 0 0-.146.163l-.098.163q-.147.245-.294.506a6 6 0 0 1-.294.523l-.098.196a.8.8 0 0 1-.098.196 9 9 0 0 0-.245.424 4 4 0 0 1-.229.425.4.4 0 0 0-.049.114.4.4 0 0 1-.049.098 3 3 0 0 0-.18.31 1.6 1.6 0 0 1-.179.327 3 3 0 0 0-.18.31 2.3 2.3 0 0 1-.163.327 12 12 0 0 0-.539.963 40 40 0 0 1-.506.947.26.26 0 0 0-.065.098q0 .05-.05.098-.113.18-.211.376-.082.18-.196.36a4 4 0 0 1-.131.211.7.7 0 0 1-.147.164.5.5 0 0 1-.18.081 1 1 0 0 0-.212.033h-.376q-.114 0-.277.016h-.31q-.146 0-.278-.016-.13-.016-.18-.065a.37.37 0 0 1-.147-.18 1.5 1.5 0 0 0-.065-.261 5 5 0 0 1-.049-.392 2.4 2.4 0 0 0-.065-.408l-.017-.147a2.5 2.5 0 0 1-.065-.409 2.5 2.5 0 0 0-.065-.424v-.082a.3.3 0 0 0-.016-.098 1.4 1.4 0 0 1-.066-.31 3 3 0 0 0-.049-.326v-.082a.2.2 0 0 0-.016-.082 3 3 0 0 1-.05-.326q0-.164-.048-.327a11 11 0 0 1-.114-.686 7 7 0 0 0-.098-.702q-.066-.408-.115-.833a4 4 0 0 0-.147-.816 1.4 1.4 0 0 0-.098-.376.3.3 0 0 0-.065-.049q-.016-.033-.065 0a.25.25 0 0 0-.13.163 1 1 0 0 1-.066.23.7.7 0 0 0-.082.244l-.033.245q-.031.18-.081.36-.034.179-.082.358l-.865 4.344-.164.8-.065.261a.35.35 0 0 1-.098.213q-.082.114-.277.147a1 1 0 0 1-.245.032 2 2 0 0 0-.262-.016H5.297a.37.37 0 0 1-.229-.098q-.081-.081-.065-.245l.065-.36.278-1.436L6.57 26.43l.458-2.286q.015-.097.032-.228a11 11 0 0 1 .13-.523 2 2 0 0 1 .082-.196.55.55 0 0 1 .294-.163q.05-.016.066 0a.3.3 0 0 0 .081-.016zm19.518 10.989a2 2 0 0 1-.033.36.31.31 0 0 1-.212.244.6.6 0 0 1-.245.05h-1.437a.33.33 0 0 1-.196-.082.3.3 0 0 1-.13-.18.45.45 0 0 0-.115-.212.2.2 0 0 0-.081-.05q-.033-.03-.115-.015a1 1 0 0 0-.18.081q-.08.05-.163.082a1.3 1.3 0 0 1-.212.114 3.5 3.5 0 0 1-.686.261 8 8 0 0 0-.49.115 1 1 0 0 1-.245.032l-.212.033h-.098a.3.3 0 0 1-.098.016h-.18a.8.8 0 0 1-.326 0h-.147a.8.8 0 0 0-.229-.032.4.4 0 0 1-.195-.017l-.294-.065a.7.7 0 0 1-.262-.082 2.15 2.15 0 0 1-.718-.457 1.55 1.55 0 0 1-.376-.767 2 2 0 0 1-.049-.245q0-.13-.016-.278a.4.4 0 0 1 0-.163.4.4 0 0 0 .033-.163q0-.05.016-.196a1 1 0 0 1 .065-.229 1.3 1.3 0 0 0 .082-.278l.163-.359a2.8 2.8 0 0 1 .98-1.061q.408-.245 1.012-.425.23-.081.457-.114a9 9 0 0 0 .474-.082q.13-.032.278-.032.163-.017.31-.05a.55.55 0 0 1 .229-.016q.114 0 .26-.032a.8.8 0 0 1 .23-.033 1 1 0 0 0 .244-.033q.36-.082.653-.13.31-.066.588-.294.164-.147.262-.327a.3.3 0 0 0 .016-.081q0-.033.016-.066.033-.032.033-.098a.5.5 0 0 1 .033-.098v-.245q-.066-.49-.556-.67a1.3 1.3 0 0 0-.343-.065 1.7 1.7 0 0 0-.408-.016q-.212 0-.424.033-.195.033-.343.081a.8.8 0 0 0-.212.098 1.4 1.4 0 0 0-.408.294.9.9 0 0 0-.164.213 4 4 0 0 0-.196.31.41.41 0 0 1-.277.196 1.1 1.1 0 0 1-.278.032h-.914q-.083 0-.18.017a.4.4 0 0 1-.13-.017h-.148a.2.2 0 0 0-.081-.016.11.11 0 0 1-.082-.032q-.115-.033-.13-.213a.4.4 0 0 1 .032-.163 5 5 0 0 1 .229-.473q.098-.164.195-.295l.131-.163.13-.163q.164-.18.393-.343a.3.3 0 0 0 .114-.082q.098-.065.163-.114a3 3 0 0 1 .18-.098q.31-.18.637-.278.342-.114.686-.212a3 3 0 0 1 .424-.065 3 3 0 0 0 .441-.066.6.6 0 0 1 .196 0q.13.017.18-.016.669-.015 1.257.05a4 4 0 0 1 1.061.244q.474.18.768.49.31.294.408.767.05.278 0 .637-.05.36-.13.735l-.735 3.642q-.05.31-.115.636a2.2 2.2 0 0 0-.049.572.5.5 0 0 1-.016.114zm-1.894-2.515a1 1 0 0 0 .049-.18q.016-.112.016-.195 0-.097.016-.18a.12.12 0 0 0-.049-.13q-.065-.066-.228-.066a2 2 0 0 0-.114.033 1 1 0 0 0-.131.016 2 2 0 0 1-.245.05q-.13.015-.278.048a.5.5 0 0 1-.147.017 3.4 3.4 0 0 1-.44.065q-.213.016-.425.082l-.261.065a1 1 0 0 0-.229.065q-.375.147-.67.441-.293.294-.342.817a.75.75 0 0 0 .098.457q.065.18.277.294.213.097.474.147.261.048.555.032a3.3 3.3 0 0 0 .588-.114q.457-.13.751-.408.31-.294.523-.719.049-.114.081-.228a1.3 1.3 0 0 1 .098-.262zm20.832-1.126a.8.8 0 0 1-.065.293q-.066.164-.164.213a.6.6 0 0 1-.245.098l-.359.032h-.375a4 4 0 0 0-.327-.016h-4.213a.5.5 0 0 0-.376.163 1 1 0 0 0-.098.131.3.3 0 0 0-.049.163.6.6 0 0 1 0 .196q0 .082.017.18.048.392.18.653.146.244.424.441a.7.7 0 0 0 .245.114q.147.017.277.066a2.1 2.1 0 0 0 .752.032h.147l.31-.065.294-.098q.18-.082.408-.212.229-.13.36-.262.097-.114.212-.212a.7.7 0 0 1 .245-.163.9.9 0 0 1 .424-.066h.67a.4.4 0 0 1 .196.017h.163a.6.6 0 0 1 .212.082q.05.032.033.146a.4.4 0 0 1-.05.196 3 3 0 0 1-.277.409q-.13.18-.294.359-.457.54-.98.865a5.4 5.4 0 0 1-1.257.556q-.196.065-.375.081-.18.017-.392.066a.3.3 0 0 1-.147 0 .5.5 0 0 0-.13.016h-.18a.4.4 0 0 1-.197.016 1 1 0 0 1-.18-.016.8.8 0 0 0-.228 0 .5.5 0 0 1-.212-.017.5.5 0 0 0-.18-.032.4.4 0 0 1-.163-.033 4 4 0 0 1-.36-.081.9.9 0 0 1-.293-.115 6 6 0 0 0-.31-.114 1.5 1.5 0 0 1-.262-.147 3.7 3.7 0 0 1-.783-.751 3.1 3.1 0 0 1-.523-1.372 1.6 1.6 0 0 0-.049-.392v-.114a.5.5 0 0 0 .016-.13 3 3 0 0 1 0-.425l.066-.457a1 1 0 0 0 .016-.18 1 1 0 0 1 .049-.18l.049-.196.13-.392q.115-.277.213-.539.098-.26.245-.49 1.045-1.698 2.874-2.4a2 2 0 0 1 .49-.13q.245-.05.522-.115.13-.015.245-.016.114 0 .245-.016.833-.017 1.388.196.555.195.964.522.13.099.244.229.13.114.213.245.033.082.114.13.098.18.163.376.083.18.18.376.049.146.065.31.033.147.066.326.032.213.032.441l.033.457a1 1 0 0 1-.05.294.8.8 0 0 0-.015.278zm-2.27-.964a.42.42 0 0 0 .098-.392l-.049-.359a1.28 1.28 0 0 0-.473-.67q-.327-.245-.997-.26a.14.14 0 0 1-.114.016.2.2 0 0 0-.114 0 1.4 1.4 0 0 1-.196.049.5.5 0 0 0-.18.032 2.28 2.28 0 0 0-1.355 1.078.8.8 0 0 0-.098.212.6.6 0 0 0-.033.196.2.2 0 0 0 .082.163q.114.082.343.082h2.727q.261-.016.36-.147zm9.311-3.38q.98-.034 1.568.278.604.31.85.914.08.18.097.392a5 5 0 0 1 .05.408 1 1 0 0 1 0 .245.8.8 0 0 0 0 .229q-.034.098-.017.13a4 4 0 0 1-.066.474l-.097.474-.278 1.453-.539 2.645q-.065.31-.13.604-.067.277-.31.36a.7.7 0 0 1-.23.032h-1.143q-.195 0-.342-.016a.3.3 0 0 1-.213-.147.44.44 0 0 1-.032-.245q.033-.163.065-.343l.229-1.143.49-2.433q.114-.604.163-1.11.065-.523-.114-.882-.164-.327-.572-.457a.5.5 0 0 0-.18-.033.4.4 0 0 1-.163-.033.7.7 0 0 0-.212 0 .8.8 0 0 0-.18.017 1 1 0 0 1-.13.016.3.3 0 0 0-.099.016 2.3 2.3 0 0 0-.653.262q-.603.375-.849 1.094a15 15 0 0 0-.408 1.616l-.408 2.041-.196.996-.066.294a.7.7 0 0 1-.097.245.44.44 0 0 1-.31.213 2.6 2.6 0 0 1-.442.032h-.816q-.18 0-.36-.016c-.18-.016-.195-.05-.228-.114q-.097-.147-.033-.425.066-.278.115-.523l.44-2.22.72-3.593.179-.833q.033-.18.065-.326a.44.44 0 0 1 .147-.245q.033-.05.114-.065a1 1 0 0 1 .164-.05h.081a1 1 0 0 1 .163-.016h.867q.13 0 .245.017.13 0 .229.032a.2.2 0 0 1 .114.147.7.7 0 0 1 .032.229.4.4 0 0 1-.016.114.15.15 0 0 0 0 .098q.017.082.033.098a1 1 0 0 1 .081.05.4.4 0 0 0 .31-.115q.148-.147.295-.229a5 5 0 0 1 1.077-.522 2 2 0 0 1 .31-.066 6 6 0 0 0 .36-.049.3.3 0 0 1 .147 0 .3.3 0 0 0 .13-.016zm4.044-.013q.015.013.016.056a.2.2 0 0 1-.016.078l-.003.026a.2.2 0 0 1-.03.05.1.1 0 0 1-.042.025.4.4 0 0 1-.082.007l-.088-.003h-.05a.05.05 0 0 1-.029.003.04.04 0 0 0-.026.003q-.035.014-.062.062a.1.1 0 0 0-.013.04l-.006.045-.157.77-.003.03a.1.1 0 0 1-.007.026l-.006.027-.007.02q0 .009-.01.016a.07.07 0 0 1-.042.035.1.1 0 0 1-.04.007h-.145q-.055 0-.075-.026-.011-.02-.007-.046l.013-.059.154-.77.006-.033a.05.05 0 0 0 .003-.03l.007-.045q.003-.052-.033-.066a.17.17 0 0 0-.088-.013q-.056.004-.098.004l-.032.003-.023-.003q-.015-.007-.023-.004l-.02-.003a.05.05 0 0 1-.03-.052 1 1 0 0 1 .02-.12l.017-.034a.05.05 0 0 1 .026-.023l.032-.016q.01-.003.014 0 .006 0 .016-.003h.872q.03 0 .055.003a.07.07 0 0 1 .043.013zm1.737.007a.07.07 0 0 1 .007.052l-.01.065-.212 1.062a1 1 0 0 1-.017.065.1.1 0 0 1-.023.046q-.023.026-.071.026h-.092l-.042.003a.1.1 0 0 1-.033-.006q-.03-.01-.036-.03l-.003-.049.01-.055q0-.01.003-.023l.006-.03.085-.414.014-.079a.3.3 0 0 0 .01-.072l-.004-.026a.02.02 0 0 0-.01-.02q-.003-.002-.01-.003l-.022.014a.5.5 0 0 0-.06.088 6 6 0 0 0-.17.3 6 6 0 0 1-.113.2l-.056.104a.2.2 0 0 1-.068.082.1.1 0 0 1-.046.016h-.105l-.029-.01a.1.1 0 0 1-.023-.016.05.05 0 0 1-.013-.026l-.02-.092-.01-.065a3 3 0 0 1-.032-.193 3 3 0 0 0-.033-.196l-.02-.11a.2.2 0 0 0-.035-.096.01.01 0 0 0-.01.004h-.007a.1.1 0 0 0-.022.03.1.1 0 0 0-.013.032.1.1 0 0 1-.007.03l-.01.055a.1.1 0 0 0-.013.049l-.078.379q-.007.042-.02.104a.2.2 0 0 1-.03.085l-.019.016a.04.04 0 0 1-.016.01.2.2 0 0 1-.04.01h-.13a.1.1 0 0 1-.065-.02q-.017-.012-.017-.042l.01-.065.216-1.078.013-.056a.2.2 0 0 1 .023-.045.08.08 0 0 1 .052-.03q.009-.003.013 0 .006 0 .016-.003h.284q.032 0 .05.016.026.02.029.062l.082.45a7 7 0 0 0 .049.245.04.04 0 0 0 .026.027q.015.006.029-.006a.3.3 0 0 0 .075-.098l.046-.082q.069-.108.127-.219.062-.114.13-.222l.053-.095a.16.16 0 0 1 .078-.072.2.2 0 0 1 .046-.006h.236a.1.1 0 0 1 .035 0h.017l.026.01q.015.003.02.013z"/><path fill="url(#a)" d="M37.313 26.035c-.204.03-.55.181-.962.425l.336.615a5.3 5.3 0 0 1 .814-.499l.032-.016-.032.016c-.089.044-.357.192-.767.523.374.093.948.202 1.419.277.17-.537-.091-.881-.091-.881s-.33-.523-.75-.46z"/><path fill="#BE202E" d="M35.5 31.001"/><path fill="#BE202E" d="M35.5 31.001" opacity=".35"/><path fill="#BE202E" d="M35.693 30.46q-.003 0 0 0 .01 0 .02.002.045.003.085.004z"/><path fill="#BE202E" d="M35.693 30.46q-.003 0 0 0 .01 0 .02.002.045.003.085.004z" opacity=".35"/><path fill="url(#b)" d="M35.505 28.643q.19-.194.381-.375a9 9 0 0 1 .832-.695l-.358-.663-.092.055a9 9 0 0 0-.364.23 14 14 0 0 0-1.203.91l-.014.012.465.897z"/><path fill="url(#c)" d="M32.661 33.255q-.105.164-.209.339l-.002.004q-.016.024-.03.05c-.047.077-.087.149-.183.308.139.089.244.246.341.418-.004-.15-.078-.313-.227-.464.687.223 1.29.267 1.614-.02a1 1 0 0 0 .082-.084c-.147.09-.322.097-.648-.012l-.002-.001h.002c.488-.02.736-.104.962-.296a2 2 0 0 0 .16-.155c-.436.2-.927.148-1.435-.07l-.385-.08z"/><path fill="url(#d)" d="m33.136 32.261.312-.45q.153-.216.314-.433t.327-.433q.17-.22.346-.435.175-.214.354-.424.064-.075.132-.15.113-.127.23-.253.005-.008.01-.014l-.481-.924a.2.2 0 0 1-.028.024c-.13.112-.263.225-.39.344a11 11 0 0 0-.694.698l-.06.067a7 7 0 0 0-.65.856 8 8 0 0 0-.165.273q-.06.114-.12.229a5 5 0 0 0-.234.55l.49.932q.115-.175.237-.357z"/><path fill="url(#e)" d="M32.276 32.428q-.129.35-.19.721-.002.013-.004.026c-.166-.252-.634-.586-.631-.583.322.448.563.87.58 1.221-.183-.025-.432-.135-.716-.291.292.281.514.4.602.439-.278-.066-.573-.012-.872.06.431-.002.779.047 1.022.157a36 36 0 0 0-1.313 2.231c.12.01.195-.029.24-.094a34 34 0 0 1 1.405-2.332l.07-.106.018-.03.265-.392q.031-.045.063-.091v-.002l-.526-.96a.1.1 0 0 0-.013.026"/><path fill="url(#f)" d="m34.949 29.642-.045.052q-.07.08-.139.163l-.154.184-.08.096q-.12.147-.243.303a24 24 0 0 0-.612.821l-.297.427q-.133.196-.27.406-.008.01-.014.02l-.28.437.398.086-.025-.011c.477.098 1.12.021 1.542-.185a2.2 2.2 0 0 0 .542-.383q.187-.18.359-.42.15-.207.291-.463-.166.014-.376-.015l-.074-.011-.077-.014c.45.006.74-.156.957-.399a1.7 1.7 0 0 1-.634.001l-.025-.005a1.7 1.7 0 0 0 .404-.048 1 1 0 0 0 .072-.021q.052-.019.102-.041l.061-.03a.7.7 0 0 0 .13-.09q.02-.017.036-.033.025-.026.045-.05a2 2 0 0 0 .22-.29q.01-.016.02-.032.025-.046.043-.082a1 1 0 0 0 .035-.09.2.2 0 0 1-.053.011 2.2 2.2 0 0 1-.56-.024l-.057-.01h.01l-1.25-.273q.003.012-.002.013"/><path fill="url(#g)" d="M36.59 27.506a9 9 0 0 0-.372.316q-.012.01-.02.02a13 13 0 0 0-.72.71q-.16.17-.331.363l1.208.252c.356-.019.519-.081.68-.195a3.6 3.6 0 0 0 .794-.817q.075-.111.119-.206.036-.084.061-.162a20 20 0 0 1-1.42-.281z"/><path fill="#BE202E" d="M35.435 31.002q-.032-.001-.068-.004.032 0 .069.004z"/><path fill="#BE202E" d="M35.435 31.002q-.032-.001-.068-.004.032 0 .069.004z" opacity=".35"/><path fill="url(#h)" d="M35.435 31.002q-.032-.001-.068-.004.032 0 .069.004z"/><path fill="#BE202E" d="M35.691 30.463q.01 0 .022.002-.009 0-.022-.002"/><path fill="#BE202E" d="M35.691 30.463q.01 0 .022.002-.009 0-.022-.002" opacity=".35"/><path fill="url(#i)" d="M35.691 30.463q.01 0 .022.002-.009 0-.022-.002"/><path fill="url(#j)" d="M30.228 24.794c.192.166.5.538.856 1.042l-.439.343a11 11 0 0 0-.727-1.046c.008.012.02.024.028.036.078.101.312.418.65 1-.38-.164-.959-.45-1.43-.697-.067-.612.25-.755.25-.755s.415-.263.812.078z"/><path fill="#BE202E" d="M30.013 30.079"/><path fill="#BE202E" d="M30.013 30.079" opacity=".35"/><path fill="#BE202E" d="M30.058 29.514q.003 0 0 0l-.02-.008q-.043-.017-.081-.036z"/><path fill="#BE202E" d="M30.058 29.514q.003 0 0 0l-.02-.008q-.043-.017-.081-.036z" opacity=".35"/><path fill="url(#k)" d="M31.128 27.989a37 37 0 0 0-.309-.614 18 18 0 0 0-.697-1.225l.479-.365.082.116q.154.22.318.467a29 29 0 0 1 1.025 1.682l.011.02-.627.509q-.143-.297-.282-.59"/><path fill="url(#l)" d="M31.624 33.478q.071.222.141.456l.002.006.02.065.12.41c-.15-.011-.28.063-.407.156.032-.136.133-.236.306-.276-.71-.258-1.303-.625-1.567-1.11a2 2 0 0 1-.064-.134c.127.184.295.308.632.427l.003.001h-.003c-.47-.35-.697-.595-.88-.926a4 4 0 0 1-.128-.252c.387.48.874.764 1.409.906l.389.187z"/><path fill="url(#m)" d="m32.05 32.385-.227-.632a41 41 0 0 0-.48-1.245 30 30 0 0 0-.264-.643q-.137-.318-.275-.636a30 30 0 0 0-.286-.622l-.009-.021.661-.527q.01.02.024.041a21 21 0 0 1 .891 1.713l.048.104a13 13 0 0 1 .489 1.24q.062.192.114.367.04.149.077.295.083.344.13.672l-.67.53c-.055-.163-.115-.328-.171-.495z"/><path fill="url(#n)" d="M31.926 32.54q.061.41.049.795l-.001.026c.22-.126.764-.132.76-.13-.419.206-.749.441-.838.757.193.096.468.157.789.196a1.8 1.8 0 0 1-.701.017c.296.12.586.362.876.625-.44-.284-.803-.465-1.073-.52.307.907.601 1.894.888 2.933a.46.46 0 0 1-.225-.244 52 52 0 0 0-.962-3.088q-.026-.07-.05-.144l-.013-.04-.191-.538-.046-.125v-.002l.73-.55q.007.016.008.031z"/><path fill="url(#o)" d="m30.71 29.012.035.08.106.246.118.278.06.144a32 32 0 0 1 .412 1.038q.111.29.223.597.105.292.214.6l.191.565q.006.015.01.028.095.285.191.587.004.007.004.012l-.407-.196.026.006c-.487-.24-1.105-.757-1.483-1.241a4.5 4.5 0 0 1-.463-.73 6 6 0 0 1-.276-.638 8 8 0 0 1-.201-.631q.162.129.373.246l.075.042.078.04a2.43 2.43 0 0 1-.868-1.033c.112.105.299.258.528.39q.046.026.096.05l.025.013a3 3 0 0 1-.455-.394l-.093-.108q-.027-.036-.055-.071a2 2 0 0 1-.11-.174q-.019-.029-.03-.055-.02-.04-.036-.078a4 4 0 0 1-.163-.421q-.007-.021-.013-.043-.017-.06-.028-.107a1 1 0 0 1-.018-.106 1 1 0 0 0 .05.046 3.5 3.5 0 0 0 .556.367l.058.03c-.002-.002-.008-.004-.01-.007l1.279.614a.01.01 0 0 0 0 .014z"/><path fill="url(#p)" d="M30.24 26.433q.14.242.304.544.01.016.016.032a26 26 0 0 1 .57 1.145q.124.265.256.559l-1.222-.583c-.343-.258-.49-.425-.625-.639a7 7 0 0 1-.623-1.293 3 3 0 0 1-.078-.272 2 2 0 0 1-.03-.191c.47.245 1.05.533 1.432.698"/><path fill="#BE202E" d="m30.073 30.108.066.029z"/><path fill="#BE202E" d="m30.073 30.108.066.029z" opacity=".35"/><path fill="url(#q)" d="m30.073 30.108.066.029z"/><path fill="#BE202E" d="m30.057 29.515-.021-.008z"/><path fill="#BE202E" d="m30.057 29.515-.021-.008z" opacity=".35"/><path fill="url(#r)" d="m30.057 29.515-.021-.008z"/><defs><linearGradient id="a" x1="36.658" x2="39.079" y1="26.611" y2="25.908" gradientUnits="userSpaceOnUse"><stop stop-color="#F69923"/><stop offset=".312" stop-color="#F79A23"/><stop offset=".838" stop-color="#E97826"/></linearGradient><linearGradient id="b" x1="29.988" x2="35.371" y1="34.736" y2="26.637" gradientUnits="userSpaceOnUse"><stop offset=".323" stop-color="#9E2064"/><stop offset=".63" stop-color="#C92037"/><stop offset=".751" stop-color="#CD2335"/><stop offset="1" stop-color="#E97826"/></linearGradient><linearGradient id="c" x1="31.688" x2="34.661" y1="35.589" y2="31.015" gradientUnits="userSpaceOnUse"><stop stop-color="#282662"/><stop offset=".095" stop-color="#662E8D"/><stop offset=".788" stop-color="#9F2064"/><stop offset=".949" stop-color="#CD2032"/></linearGradient><linearGradient id="d" x1="29.996" x2="35.525" y1="35.063" y2="26.622" gradientUnits="userSpaceOnUse"><stop offset=".323" stop-color="#9E2064"/><stop offset=".63" stop-color="#C92037"/><stop offset=".751" stop-color="#CD2335"/><stop offset="1" stop-color="#E97826"/></linearGradient><linearGradient id="e" x1="30.467" x2="33.405" y1="35.32" y2="30.617" gradientUnits="userSpaceOnUse"><stop stop-color="#282662"/><stop offset=".095" stop-color="#662E8D"/><stop offset=".788" stop-color="#9F2064"/><stop offset=".949" stop-color="#CD2032"/></linearGradient><linearGradient id="f" x1="31.305" x2="36.542" y1="35.465" y2="27.566" gradientUnits="userSpaceOnUse"><stop offset=".323" stop-color="#9E2064"/><stop offset=".63" stop-color="#C92037"/><stop offset=".751" stop-color="#CD2335"/><stop offset="1" stop-color="#E97826"/></linearGradient><linearGradient id="g" x1="31.191" x2="36.168" y1="34.931" y2="27.264" gradientUnits="userSpaceOnUse"><stop offset=".323" stop-color="#9E2064"/><stop offset=".63" stop-color="#C92037"/><stop offset=".751" stop-color="#CD2335"/><stop offset="1" stop-color="#E97826"/></linearGradient><linearGradient id="h" x1="32.03" x2="36.153" y1="35.34" y2="27.647" gradientUnits="userSpaceOnUse"><stop offset=".323" stop-color="#9E2064"/><stop offset=".63" stop-color="#C92037"/><stop offset=".751" stop-color="#CD2335"/><stop offset="1" stop-color="#E97826"/></linearGradient><linearGradient id="i" x1="32.076" x2="36.676" y1="35.78" y2="27.44" gradientUnits="userSpaceOnUse"><stop offset=".323" stop-color="#9E2064"/><stop offset=".63" stop-color="#C92037"/><stop offset=".751" stop-color="#CD2335"/><stop offset="1" stop-color="#E97826"/></linearGradient><linearGradient id="j" x1="30.759" x2="28.143" y1="25.77" y2="24.106" gradientUnits="userSpaceOnUse"><stop stop-color="#F69923"/><stop offset=".312" stop-color="#F79A23"/><stop offset=".838" stop-color="#E97826"/></linearGradient><linearGradient id="k" x1="35.473" x2="36.267" y1="37.483" y2="26.559" gradientUnits="userSpaceOnUse"><stop offset=".323" stop-color="#9E2064"/><stop offset=".63" stop-color="#C92037"/><stop offset=".751" stop-color="#CD2335"/><stop offset="1" stop-color="#E97826"/></linearGradient><linearGradient id="l" x1="32.144" x2="32.557" y1="36.3" y2="30.218" gradientUnits="userSpaceOnUse"><stop stop-color="#282662"/><stop offset=".095" stop-color="#662E8D"/><stop offset=".788" stop-color="#9F2064"/><stop offset=".949" stop-color="#CD2032"/></linearGradient><linearGradient id="m" x1="34.673" x2="35.461" y1="37.143" y2="25.837" gradientUnits="userSpaceOnUse"><stop offset=".323" stop-color="#9E2064"/><stop offset=".63" stop-color="#C92037"/><stop offset=".751" stop-color="#CD2335"/><stop offset="1" stop-color="#E97826"/></linearGradient><linearGradient id="n" x1="33.187" x2="33.563" y1="36.412" y2="30.266" gradientUnits="userSpaceOnUse"><stop stop-color="#282662"/><stop offset=".095" stop-color="#662E8D"/><stop offset=".788" stop-color="#9F2064"/><stop offset=".949" stop-color="#CD2032"/></linearGradient><linearGradient id="o" x1="33.224" x2="33.992" y1="36.934" y2="26.306" gradientUnits="userSpaceOnUse"><stop offset=".323" stop-color="#9E2064"/><stop offset=".63" stop-color="#C92037"/><stop offset=".751" stop-color="#CD2335"/><stop offset="1" stop-color="#E97826"/></linearGradient><linearGradient id="p" x1="34.133" x2="34.822" y1="36.96" y2="26.773" gradientUnits="userSpaceOnUse"><stop offset=".323" stop-color="#9E2064"/><stop offset=".63" stop-color="#C92037"/><stop offset=".751" stop-color="#CD2335"/><stop offset="1" stop-color="#E97826"/></linearGradient><linearGradient id="q" x1="32.555" x2="32.586" y1="35.525" y2="26.835" gradientUnits="userSpaceOnUse"><stop offset=".323" stop-color="#9E2064"/><stop offset=".63" stop-color="#C92037"/><stop offset=".751" stop-color="#CD2335"/><stop offset="1" stop-color="#E97826"/></linearGradient><linearGradient id="r" x1="32.673" x2="32.55" y1="35.301" y2="26.638" gradientUnits="userSpaceOnUse"><stop offset=".323" stop-color="#9E2064"/><stop offset=".63" stop-color="#C92037"/><stop offset=".751" stop-color="#CD2335"/><stop offset="1" stop-color="#E97826"/></linearGradient></defs></svg>